<?xml version="1.0" encoding="UTF-8"?> <svg xmlns="http://www.w3.org/2000/svg" width="140" height="140" viewBox="0 0 140 140" fill="none"><circle cx="70" cy="70" r="69.5" stroke="#0043C6"></circle><path fill-rule="evenodd" clip-rule="evenodd" d="M55.0313 29.7285C51.6904 30.8659 47.7773 34.7376 46.6545 38.0176C46.1955 39.3583 45.82 41.65 45.82 43.1101V45.7641L36.7984 45.7076C31.8363 45.6763 27.5772 45.8493 27.3337 46.0917C27.0828 46.3415 26.9468 58.1281 27.0195 73.2667L27.1485 100.001L29.405 100.147C31.6137 100.291 31.6789 100.345 32.5164 102.691C34.2691 107.603 40.2445 110.878 45.2664 109.678C46.5754 109.366 48.3489 108.685 49.2078 108.165C51.1148 107.011 53.6058 103.683 54.042 101.707L54.3636 100.248H76.7421H99.1211L99.6165 101.611C101.065 105.593 103.687 108.301 107.226 109.471C113.037 111.392 119.846 107.886 121.607 102.066C122.11 100.406 122.34 100.197 123.435 100.406C124.124 100.537 125.208 100.448 125.844 100.207L127 99.7696L126.865 89.725L126.73 79.6804L124.989 79.4326L123.248 79.1848L120.01 69.7681L116.772 60.3515L107.436 60.2167L98.1004 60.0819V53.6904C98.1004 50.175 97.9645 46.9461 97.7982 46.5149C97.5343 45.8305 95.9992 45.7309 85.7239 45.7309H73.9519L73.8851 42.5361C73.8055 38.7501 72.5617 35.8513 69.8356 33.1001C66.173 29.4029 60.0702 28.0131 55.0313 29.7285ZM62.4681 32.8885C65.1862 33.57 67.9521 35.8196 69.2964 38.4424C71.538 42.8162 69.9128 47.9492 62.7813 59.0153C60.6871 62.2645 60.0079 62.9911 59.4747 62.5505C58.4216 61.6802 54.0714 54.7367 51.7048 50.1483C49.8172 46.4886 49.5549 45.5847 49.5578 42.7572C49.5628 37.9324 51.911 34.7426 56.7168 33.0332C58.9638 32.2338 59.7739 32.2135 62.4681 32.8885ZM56.2263 36.3806C52.8659 38.3204 51.659 42.6105 53.4848 46.1249C56.9533 52.8008 67.839 49.4445 67.0747 41.9349C66.5315 36.5997 60.8693 33.7003 56.2263 36.3806ZM61.3941 39.2462C62.9999 39.8539 63.9474 42.1629 63.2931 43.8748C62.719 45.378 61.3667 46.2265 59.5454 46.2265C56.4101 46.2265 55.0582 41.8001 57.5881 39.8197C59.05 38.6748 59.6465 38.5851 61.3941 39.2462ZM49.0141 52.7968C52.013 58.319 58.1547 67.526 59.0744 67.8769C59.5265 68.0498 60.2444 67.973 60.6687 67.7064C61.8387 66.9719 67.9097 57.9091 70.3226 53.2949L72.4581 49.212L83.5366 49.2061L94.6151 49.2002V72.9896V96.7791H74.5284H54.4423L53.8797 94.9206C50.8375 84.872 35.8937 84.872 32.3367 94.9206C31.9747 95.943 31.3877 96.7791 31.0317 96.7791C30.5104 96.7791 30.3849 92.1704 30.3849 72.9896V49.2002L38.7248 49.2036L47.0648 49.2066L49.0141 52.7968ZM116.549 70.63C117.865 74.3754 119.085 77.8878 119.26 78.4359C119.571 79.4133 119.37 79.4326 108.839 79.4326H98.1004V71.4904V63.5482L106.128 63.6845L114.155 63.8208L116.549 70.63ZM57.8037 70.4491C57.5109 70.9928 57.2719 72.1159 57.2719 72.9455V74.4532L48.683 74.5885L40.0941 74.7243L39.9457 78.1143C39.8551 80.1869 40.0239 81.7759 40.3804 82.2031C40.8639 82.783 44.3348 82.9019 60.7827 82.9019C78.1368 82.9019 80.7 82.8053 81.3851 82.1233C81.8153 81.6946 82.1673 81.1816 82.1673 80.9834C82.1673 79.5516 80.6333 79.4326 62.1514 79.4326C45.8873 79.4326 43.3305 79.333 43.3305 78.7011C43.3305 78.089 44.7396 77.9468 51.9194 77.8338L60.5083 77.698V73.7331C60.5083 70.0353 60.4351 69.7577 59.4219 69.614C58.7358 69.5169 58.1393 69.8246 57.8037 70.4491ZM83.7019 79.6314C83.3519 80.0511 83.2259 80.8312 83.4131 81.4175C83.6919 82.2923 84.0773 82.435 85.819 82.3087C87.7584 82.1684 87.8933 82.0618 87.8933 80.6717C87.8933 79.3236 87.7265 79.1709 86.1078 79.0356C84.9741 78.9415 84.0962 79.1585 83.7019 79.6314ZM123.494 89.8405C123.494 95.2011 123.347 96.7791 122.847 96.7791C122.491 96.7791 121.897 95.943 121.528 94.9206C119.85 90.2796 115.712 87.3624 110.808 87.3624C105.822 87.3624 101.338 90.4977 99.9989 94.9206C99.6897 95.943 99.1361 96.7791 98.7686 96.7791C98.2413 96.7791 98.1004 95.3141 98.1004 89.8405V82.9019H110.797H123.494V89.8405ZM46.7855 91.8076C49.3955 93.1329 50.7991 95.5163 50.7991 98.6228C50.7991 106.133 41.2139 109.142 36.661 103.062C35.2081 101.122 35.1787 96.1185 36.6087 94.2143C39.0226 91.0002 43.2344 90.0041 46.7855 91.8076ZM114.464 91.8567C117.379 93.5071 118.266 95.0791 118.266 98.6015C118.266 100.94 118.018 101.993 117.218 103.062C112.665 109.142 103.079 106.133 103.079 98.6228C103.079 92.6402 109.308 88.938 114.464 91.8567ZM71.0132 92.5887C70.5755 93.0243 70.2175 93.572 70.2175 93.8054C70.2175 94.0389 70.5755 94.5865 71.0132 95.0222C71.6814 95.6873 72.9331 95.7923 78.802 95.6774C84.8272 95.5589 85.8708 95.4201 86.3438 94.6727C86.7436 94.0408 86.7436 93.57 86.3438 92.9381C85.8708 92.1907 84.8272 92.0519 78.802 91.9335C72.9331 91.8185 71.6814 91.9236 71.0132 92.5887ZM88.9299 92.4752C87.8813 93.2389 88.0322 94.7129 89.2361 95.4677C90.3599 96.172 92.8057 95.3185 93.0332 94.1429C93.4181 92.1525 90.823 91.0974 88.9299 92.4752ZM39.8835 95.0886C38.6218 96.1452 38.3514 96.738 38.3514 98.4473C38.3514 101.093 39.3871 102.55 41.774 103.262C44.2636 104.004 46.5918 102.886 47.6105 100.459C49.6445 95.6139 43.9673 91.6678 39.8835 95.0886ZM107.711 94.6837C105.408 96.4847 105.17 99.8648 107.191 102.081C108.546 103.568 110.582 103.924 112.697 103.044C114.807 102.167 115.527 100.97 115.527 98.3428C115.527 96.7504 115.233 96.1254 113.995 95.0886C112.178 93.567 109.37 93.3861 107.711 94.6837ZM44.2452 98.4602C44.4478 99.507 43.5078 100.285 42.5045 99.9015C41.7979 99.6319 41.5973 98.1738 42.1858 97.5879C42.8037 96.9734 44.0604 97.5057 44.2452 98.4602ZM111.961 98.4602C112.163 99.507 111.223 100.285 110.22 99.9015C109.513 99.6319 109.313 98.1738 109.901 97.5879C110.519 96.9734 111.776 97.5057 111.961 98.4602Z" fill="#0043C6"></path></svg> 