<?xml version="1.0" encoding="UTF-8"?> <svg xmlns="http://www.w3.org/2000/svg" width="140" height="140" viewBox="0 0 140 140" fill="none"><circle cx="70" cy="70" r="69.5" stroke="#0043C6"></circle><path fill-rule="evenodd" clip-rule="evenodd" d="M66.5236 17.2946C56.9345 19.0551 48.9927 26.0793 46.0748 35.3808C44.9347 39.0156 44.6244 43.3521 45.2203 47.3315C46.6725 57.0328 53.7797 65.3291 63.2075 68.3284C67.2136 69.6027 71.9617 69.8497 76.0926 68.9982C86.4204 66.8697 94.3463 58.9638 96.5813 48.5615C97.0977 46.158 97.1971 41.4643 96.7834 39.01C95.8606 33.5356 93.3227 28.5834 89.4325 24.6659C85.5673 20.7735 80.7244 18.2364 75.354 17.2905C73.1456 16.9014 68.6535 16.9036 66.5236 17.2946ZM75.0439 20.6873C82.343 22.0051 88.8968 27.217 91.8094 34.0203C94.8541 41.1324 94.1821 49.4174 90.0457 55.7608C88.2309 58.544 84.7956 61.7035 81.7297 63.4092C75.8192 66.6974 68.1791 66.9872 61.7983 64.1654C57.415 62.2268 53.2929 58.3951 50.9702 54.1002C47.065 46.8788 47.4661 37.5244 51.9747 30.6795C53.2101 28.8039 55.7725 26.0927 57.5378 24.7929C62.6147 21.0554 68.9076 19.5796 75.0439 20.6873ZM66.8893 23.926C63.7919 24.6073 60.6565 26.1747 58.3647 28.1877C54.8791 31.2489 52.7109 34.9231 51.8138 39.289C51.2898 41.8384 51.3844 45.7758 52.0276 48.2095C53.8266 55.0137 59.2137 60.445 66.0533 62.3503C68.347 62.9891 73.6451 62.9916 75.9292 62.3548C81.5871 60.7774 86.2892 56.8137 88.733 51.5621C89.8909 49.074 90.3714 47.0561 90.4977 44.1511C90.6183 41.3781 90.3904 39.5081 89.6401 37.1164C89.06 35.2675 88.6002 34.7354 87.5825 34.7354C86.917 34.7354 86.3538 35.2556 78.9599 42.6996C74.6092 47.0798 70.9521 50.6291 70.8332 50.587C70.714 50.5448 68.9061 49.0334 66.8155 47.2282C64.7247 45.423 62.7771 43.7515 62.4872 43.514L61.9602 43.082L63.2483 41.5139C63.9567 40.6515 64.5927 39.9495 64.6618 39.9543C64.7306 39.9588 66.0245 41.064 67.537 42.4101C69.9228 44.5337 70.3816 44.8586 71.0012 44.8636C71.6698 44.8687 72.1469 44.4344 78.4873 38.0471C85.0511 31.435 85.2593 31.2009 85.2593 30.4302C85.2593 29.7773 85.1226 29.5047 84.4954 28.9075C82.3235 26.8391 79.3396 25.1259 76.3537 24.2327C73.8787 23.4924 69.5052 23.3508 66.8893 23.926ZM74.8704 27.3588C76.2533 27.6825 79.9092 29.3918 80.7643 30.1147L81.2599 30.5338L76.1824 35.6501C73.3899 38.4642 71.0275 40.7664 70.9328 40.7664C70.8381 40.7664 69.5081 39.6546 67.9774 38.2955C64.1576 34.9042 64.4888 34.8614 60.7684 39.2279C58.2657 42.165 57.9713 42.5905 57.9674 43.276C57.963 44.0276 58.0785 44.1421 64.125 49.3739C69.6169 54.1258 70.3644 54.7064 70.999 54.7107C71.6659 54.7152 72.1902 54.2331 79.2826 47.0928L86.8543 39.4699L87.0148 40.4772C87.2767 42.1203 87.169 45.4823 86.8088 46.8979C85.9741 50.1788 84.7496 52.3518 82.405 54.7131C79.1264 58.0146 75.5986 59.4932 71 59.4932C68.5215 59.4932 67.0349 59.2103 64.8567 58.3243C60.1459 56.4082 56.4763 52.1098 55.2087 47.023C54.7255 45.0839 54.7255 41.3722 55.2087 39.433C56.8355 32.9046 62.2833 27.9272 68.7853 27.0287C70.4076 26.8045 73.1342 26.9524 74.8704 27.3588ZM33.9259 51.5422C30.5088 53.3995 27.5524 55.1144 27.3565 55.353C27.022 55.7599 27 57.0927 27 76.8702C27 96.6475 27.022 97.9807 27.3565 98.3879C27.8682 99.0109 70.3602 122 71 122C71.6398 122 114.132 99.0109 114.644 98.3879C114.978 97.9807 115 96.6488 115 76.8932C115 58.7539 114.959 55.7733 114.702 55.4047C114.267 54.7786 101.936 48.1513 101.206 48.1513C100.096 48.1513 99.2898 49.3562 99.7126 50.3844C99.9687 51.007 100.522 51.3489 106.084 54.323C108.071 55.3852 109.695 56.3003 109.694 56.3567C109.689 56.5708 71.4023 77.1779 71.0098 77.1779C70.6164 77.1779 32.3116 56.5698 32.3089 56.3567C32.3081 56.3003 33.9322 55.385 35.9177 54.3228C41.4854 51.3442 42.0315 51.0066 42.2874 50.3844C42.717 49.34 41.8987 48.1455 40.7624 48.1582C40.3528 48.163 38.0088 49.3232 33.9259 51.5422ZM36.1787 62.3749L41.9722 65.5215L42.0741 73.6504C42.16 80.5126 42.2236 81.8257 42.4815 82.0774C43.1706 82.7496 53.4593 88.1527 54.0504 88.1527C54.3849 88.1527 54.875 87.9762 55.1394 87.7607L55.6204 87.3688L55.7222 80.1979L55.8241 73.027L62.5463 76.6741L69.2685 80.3212L69.3205 98.9202L69.3726 117.519L66.876 116.181C65.5031 115.445 56.7255 110.692 47.3704 105.618L30.3611 96.3927L30.3092 77.8106C30.2804 67.5905 30.2859 59.2286 30.321 59.2286C30.3562 59.2286 32.9921 60.6444 36.1787 62.3749ZM111.691 77.8122L111.639 96.3956L92.1941 106.941C81.4995 112.741 72.7219 117.487 72.6883 117.487C72.6549 117.487 72.6508 109.127 72.6795 98.9081L72.7315 80.3292L92.0833 69.8019C102.727 64.0117 111.504 59.2641 111.589 59.2513C111.674 59.2388 111.72 67.5911 111.691 77.8122ZM50.4259 70.0977L52.1574 71.0239L52.2112 77.3383L52.2652 83.6528L50.1741 82.5075C49.0242 81.8778 47.5105 81.0704 46.8102 80.7132L45.537 80.0644V73.7577V67.451L47.1157 68.3112C47.9839 68.7842 49.4736 69.5881 50.4259 70.0977ZM100.257 71.1092C97.0219 72.8812 94.2491 74.5044 94.0949 74.7167C93.3426 75.7526 94.123 77.2805 95.4047 77.2805C95.8502 77.2805 97.8443 76.311 101.808 74.1676C104.974 72.4555 107.771 70.87 108.023 70.6446C108.656 70.0786 108.649 68.8948 108.01 68.2902C107.125 67.4535 106.549 67.6631 100.257 71.1092ZM100.257 77.6735C97.0219 79.4455 94.2491 81.0687 94.0949 81.281C93.3426 82.317 94.123 83.8448 95.4047 83.8448C95.8502 83.8448 97.8443 82.8754 101.808 80.7319C104.974 79.0198 107.771 77.4343 108.023 77.2089C108.656 76.6429 108.649 75.4591 108.01 74.8546C107.125 74.0178 106.549 74.2275 100.257 77.6735ZM97.8889 85.5093C93.3514 87.9799 89.4784 90.1956 89.2824 90.4332C88.9624 90.8209 88.9259 91.4293 88.9259 96.3901V101.915L89.426 102.419C90.0396 103.037 90.7157 103.056 91.8369 102.487C96.0688 100.341 107.663 93.9381 108.023 93.5483C108.475 93.0601 108.481 92.9746 108.481 87.5165V81.9799L107.981 81.4765C107.638 81.1305 107.271 80.9799 106.81 80.9951C106.35 81.0105 103.549 82.4275 97.8889 85.5093ZM105.177 88.4797L105.12 91.4734L98.7226 94.9414C95.2039 96.8488 92.2911 98.4094 92.2496 98.4094C92.2082 98.4094 92.1996 97.0658 92.2306 95.4235L92.287 92.4375L98.6019 88.9839C102.075 87.0843 104.988 85.5202 105.075 85.5081C105.162 85.4958 105.208 86.833 105.177 88.4797Z" fill="#0043C6"></path></svg> 