<?xml version="1.0" encoding="UTF-8"?> <svg xmlns="http://www.w3.org/2000/svg" width="386" height="153" viewBox="0 0 386 153" fill="none"><path d="M385.6 76.4717C385.6 86.8834 380.276 96.8437 370.56 105.946C360.842 115.049 346.76 123.265 329.324 130.173C294.456 143.989 246.258 152.543 193 152.543C139.742 152.543 91.5442 143.989 56.6757 130.173C39.2403 123.265 25.1576 115.049 15.4404 105.946C5.72382 96.8437 0.4 86.8834 0.4 76.4717C0.4 66.06 5.72382 56.0997 15.4404 46.9974C25.1576 37.8944 39.2403 29.6783 56.6757 22.7699C91.5442 8.95409 139.742 0.4 193 0.4C246.258 0.4 294.456 8.95409 329.324 22.7699C346.76 29.6783 360.842 37.8944 370.56 46.9974C380.276 56.0997 385.6 66.06 385.6 76.4717Z" fill="white" stroke="black" stroke-width="0.8"></path><path d="M378.317 76.4721C378.317 86.2092 373.201 95.5299 363.853 104.053C354.504 112.576 340.955 120.27 324.178 126.739C290.626 139.677 244.248 147.688 193 147.688C141.752 147.688 95.3737 139.677 61.8221 126.739C45.045 120.27 31.4954 112.576 22.147 104.053C12.7988 95.5299 7.68296 86.2092 7.68296 76.4721C7.68296 66.735 12.7988 57.4142 22.147 48.8913C31.4954 40.3683 45.045 32.6745 61.8221 26.2049C95.3737 13.2667 141.752 5.25571 193 5.25571C244.248 5.25571 290.626 13.2667 324.178 26.2049C340.955 32.6745 354.504 40.3683 363.853 48.8913C373.201 57.4142 378.317 66.735 378.317 76.4721Z" fill="white" stroke="black" stroke-width="0.8"></path><path d="M84.9684 101.963L46.1257 38.8435H63.1194L92.2515 87.397L97.1068 80.1139L71.6162 38.8435H86.1823L125.025 101.963H84.9684Z" fill="#063794"></path><path d="M151.729 64.3341L129.88 101.963H145.66L166.295 64.3341H151.729Z" fill="#063794"></path><path d="M252.478 64.3341L230.629 101.963H245.195L265.83 64.3341H252.478Z" fill="#063794"></path><path d="M262.189 44.9127L256.119 55.8372H269.472L275.541 44.9127H262.189Z" fill="#063794"></path><path d="M271.899 64.3341L250.05 101.963H263.402L282.824 69.1894H287.679L270.685 101.963H282.824L300.087 70.89C300.661 69.8555 300.574 68.5798 299.864 67.6331L298.29 65.5341C297.723 64.7787 296.834 64.3341 295.89 64.3341H271.899Z" fill="#063794"></path><path fill-rule="evenodd" clip-rule="evenodd" d="M172.365 64.3341L149.302 101.963H163.868L183.289 69.1894H190.572L169.937 101.963H183.289L200.615 71.9323C201.159 70.9885 201.149 69.8234 200.588 68.8892C199.843 67.6467 199.226 66.6191 198.438 65.3056C198.077 64.7032 197.425 64.3341 196.723 64.3341H172.365ZM212.421 64.3341L190.572 101.963H205.138L223.346 69.1894H228.201L209.994 101.963H224.56L240.542 71.1389C241.144 69.9781 240.925 68.5612 240.001 67.6366L237.284 64.9199C236.909 64.5448 236.4 64.3341 235.87 64.3341H212.421Z" fill="#063794"></path><path fill-rule="evenodd" clip-rule="evenodd" d="M290.107 101.963C290.107 101.963 288.534 107.538 290.107 110.46C291.06 112.231 291.321 112.888 293.748 114.101C295.815 115.135 308.441 114.408 312.148 114.17C312.793 114.128 313.37 113.773 313.706 113.221L343.516 64.3341H316.03C315.005 64.3341 314.05 64.8581 313.499 65.7234L298.504 89.2879C297.834 90.3412 297.886 91.6996 298.635 92.6985L300.431 95.0938C300.809 95.5974 301.402 95.8938 302.031 95.8938H311.956L304.673 108.032C304.673 108.032 301.672 111.286 298.604 108.032C296.945 106.274 301.031 101.963 301.031 101.963H290.107ZM321.667 69.1894L308.314 91.0385H314.384L328.95 69.1894H321.667Z" fill="#063794"></path><path d="M162.654 44.9127L156.585 55.8372H169.937L176.006 44.9127H162.654Z" fill="#063794"></path><path d="M156.585 38.8435H97.1071L127.453 87.397L156.585 38.8435Z" fill="#E4020F"></path><path d="M103.358 114.648V106.058H109.247V107.511H105.093V109.545H108.679V110.998H105.093V114.648H103.358ZM111.11 114.648V106.058H112.844V114.648H111.11ZM118.979 111.49V110.043H122.717V113.465C122.354 113.816 121.826 114.127 121.135 114.396C120.447 114.662 119.75 114.795 119.043 114.795C118.145 114.795 117.361 114.607 116.693 114.232C116.025 113.853 115.524 113.314 115.188 112.615C114.852 111.912 114.684 111.148 114.684 110.324C114.684 109.429 114.871 108.635 115.246 107.939C115.621 107.244 116.17 106.711 116.893 106.34C117.443 106.054 118.129 105.912 118.949 105.912C120.016 105.912 120.848 106.136 121.445 106.586C122.047 107.031 122.434 107.648 122.606 108.437L120.883 108.76C120.762 108.338 120.533 108.006 120.197 107.763C119.865 107.517 119.449 107.394 118.949 107.394C118.191 107.394 117.588 107.635 117.139 108.115C116.693 108.595 116.471 109.308 116.471 110.254C116.471 111.273 116.697 112.039 117.15 112.551C117.604 113.058 118.197 113.312 118.932 113.312C119.295 113.312 119.658 113.242 120.022 113.101C120.389 112.957 120.703 112.783 120.965 112.58V111.49H118.979ZM124.808 114.648V106.058H126.543V109.439H129.941V106.058H131.675V114.648H129.941V110.892H126.543V114.648H124.808ZM135.888 114.648V107.511H133.339V106.058H140.165V107.511H137.622V114.648H135.888ZM141.717 114.648V106.058H143.452V114.648H141.717ZM145.608 114.648V106.058H147.295L150.811 111.795V106.058H152.422V114.648H150.682L147.219 109.047V114.648H145.608ZM158.738 111.49V110.043H162.476V113.465C162.113 113.816 161.586 114.127 160.894 114.396C160.207 114.662 159.509 114.795 158.802 114.795C157.904 114.795 157.121 114.607 156.453 114.232C155.785 113.853 155.283 113.314 154.947 112.615C154.611 111.912 154.443 111.148 154.443 110.324C154.443 109.429 154.631 108.635 155.006 107.939C155.381 107.244 155.929 106.711 156.652 106.34C157.203 106.054 157.888 105.912 158.709 105.912C159.775 105.912 160.607 106.136 161.205 106.586C161.806 107.031 162.193 107.648 162.365 108.437L160.642 108.76C160.521 108.338 160.293 108.006 159.957 107.763C159.625 107.517 159.209 107.394 158.709 107.394C157.951 107.394 157.347 107.635 156.898 108.115C156.453 108.595 156.23 109.308 156.23 110.254C156.23 111.273 156.457 112.039 156.91 112.551C157.363 113.058 157.957 113.312 158.691 113.312C159.054 113.312 159.418 113.242 159.781 113.101C160.148 112.957 160.463 112.783 160.724 112.58V111.49H158.738ZM167.942 111.853L169.63 111.689C169.731 112.256 169.936 112.672 170.245 112.937C170.557 113.203 170.977 113.336 171.505 113.336C172.063 113.336 172.483 113.219 172.764 112.984C173.05 112.746 173.192 112.469 173.192 112.152C173.192 111.949 173.132 111.777 173.01 111.636C172.893 111.492 172.686 111.367 172.389 111.261C172.186 111.191 171.723 111.066 171.001 110.886C170.071 110.656 169.419 110.373 169.044 110.037C168.516 109.564 168.253 108.988 168.253 108.308C168.253 107.871 168.376 107.463 168.622 107.084C168.872 106.701 169.229 106.41 169.694 106.211C170.163 106.011 170.727 105.912 171.387 105.912C172.466 105.912 173.276 106.148 173.819 106.621C174.366 107.094 174.653 107.724 174.68 108.513L172.946 108.59C172.872 108.148 172.712 107.832 172.466 107.64C172.223 107.445 171.858 107.347 171.37 107.347C170.866 107.347 170.471 107.451 170.186 107.658C170.003 107.791 169.911 107.969 169.911 108.191C169.911 108.394 169.997 108.568 170.169 108.713C170.387 108.896 170.919 109.088 171.762 109.287C172.606 109.486 173.229 109.693 173.632 109.908C174.038 110.119 174.354 110.41 174.581 110.781C174.811 111.148 174.926 111.603 174.926 112.146C174.926 112.638 174.79 113.099 174.516 113.529C174.243 113.959 173.856 114.279 173.356 114.49C172.856 114.697 172.233 114.801 171.487 114.801C170.401 114.801 169.567 114.551 168.985 114.051C168.403 113.547 168.055 112.814 167.942 111.853ZM176.865 114.648V106.058H179.649C180.703 106.058 181.391 106.101 181.711 106.187C182.203 106.316 182.615 106.597 182.948 107.031C183.28 107.461 183.446 108.017 183.446 108.701C183.446 109.228 183.35 109.672 183.158 110.031C182.967 110.39 182.723 110.674 182.426 110.881C182.133 111.084 181.834 111.219 181.53 111.285C181.115 111.367 180.516 111.408 179.731 111.408H178.6V114.648H176.865ZM178.6 107.511V109.949H179.549C180.233 109.949 180.69 109.904 180.92 109.814C181.151 109.724 181.33 109.584 181.459 109.392C181.592 109.201 181.658 108.978 181.658 108.724C181.658 108.412 181.567 108.154 181.383 107.951C181.199 107.748 180.967 107.621 180.686 107.57C180.479 107.531 180.063 107.511 179.438 107.511H178.6ZM184.998 110.406C184.998 109.531 185.129 108.797 185.39 108.203C185.586 107.765 185.851 107.373 186.187 107.025C186.527 106.677 186.898 106.42 187.301 106.252C187.836 106.025 188.453 105.912 189.152 105.912C190.418 105.912 191.429 106.304 192.187 107.09C192.949 107.875 193.33 108.967 193.33 110.365C193.33 111.752 192.953 112.838 192.199 113.623C191.445 114.404 190.437 114.795 189.176 114.795C187.898 114.795 186.883 114.406 186.129 113.629C185.375 112.847 184.998 111.773 184.998 110.406ZM186.785 110.347C186.785 111.32 187.01 112.058 187.459 112.562C187.908 113.062 188.478 113.312 189.17 113.312C189.861 113.312 190.427 113.064 190.869 112.568C191.314 112.068 191.537 111.32 191.537 110.324C191.537 109.34 191.32 108.605 190.886 108.121C190.457 107.636 189.885 107.394 189.17 107.394C188.455 107.394 187.879 107.64 187.441 108.133C187.004 108.621 186.785 109.359 186.785 110.347ZM195.175 114.648V106.058H198.825C199.743 106.058 200.409 106.136 200.824 106.293C201.241 106.445 201.575 106.719 201.825 107.113C202.075 107.508 202.2 107.959 202.2 108.467C202.2 109.111 202.011 109.644 201.632 110.066C201.253 110.484 200.687 110.748 199.933 110.857C200.308 111.076 200.616 111.316 200.859 111.578C201.105 111.84 201.435 112.304 201.849 112.972L202.898 114.648H200.824L199.57 112.779C199.124 112.111 198.82 111.691 198.656 111.519C198.491 111.344 198.318 111.224 198.134 111.162C197.95 111.095 197.659 111.062 197.261 111.062H196.909V114.648H195.175ZM196.909 109.691H198.193C199.025 109.691 199.544 109.656 199.751 109.586C199.958 109.515 200.12 109.394 200.238 109.222C200.355 109.051 200.413 108.836 200.413 108.578C200.413 108.289 200.335 108.056 200.179 107.881C200.027 107.701 199.81 107.588 199.529 107.541C199.388 107.521 198.966 107.511 198.263 107.511H196.909V109.691ZM206.255 114.648V107.511H203.706V106.058H210.532V107.511H207.989V114.648H206.255ZM211.698 111.853L213.385 111.689C213.487 112.256 213.692 112.672 214 112.937C214.313 113.203 214.733 113.336 215.26 113.336C215.819 113.336 216.239 113.219 216.52 112.984C216.805 112.746 216.948 112.469 216.948 112.152C216.948 111.949 216.887 111.777 216.766 111.636C216.649 111.492 216.442 111.367 216.145 111.261C215.942 111.191 215.479 111.066 214.756 110.886C213.826 110.656 213.174 110.373 212.799 110.037C212.272 109.564 212.008 108.988 212.008 108.308C212.008 107.871 212.131 107.463 212.377 107.084C212.627 106.701 212.985 106.41 213.45 106.211C213.918 106.011 214.483 105.912 215.143 105.912C216.221 105.912 217.032 106.148 217.575 106.621C218.121 107.094 218.409 107.724 218.436 108.513L216.701 108.59C216.627 108.148 216.467 107.832 216.221 107.64C215.979 107.445 215.614 107.347 215.125 107.347C214.621 107.347 214.227 107.451 213.942 107.658C213.758 107.791 213.666 107.969 213.666 108.191C213.666 108.394 213.752 108.568 213.924 108.713C214.143 108.896 214.674 109.088 215.518 109.287C216.362 109.486 216.985 109.693 217.387 109.908C217.793 110.119 218.11 110.41 218.336 110.781C218.567 111.148 218.682 111.603 218.682 112.146C218.682 112.638 218.545 113.099 218.272 113.529C217.998 113.959 217.612 114.279 217.112 114.49C216.612 114.697 215.989 114.801 215.243 114.801C214.157 114.801 213.323 114.551 212.741 114.051C212.159 113.547 211.811 112.814 211.698 111.853ZM225.66 114.648L223.609 106.058H225.384L226.679 111.959L228.249 106.058H230.312L231.818 112.058L233.136 106.058H234.882L232.796 114.648H230.956L229.245 108.226L227.54 114.648H225.66ZM235.901 110.406C235.901 109.531 236.032 108.797 236.294 108.203C236.489 107.765 236.755 107.373 237.091 107.025C237.431 106.677 237.802 106.42 238.204 106.252C238.739 106.025 239.356 105.912 240.056 105.912C241.321 105.912 242.333 106.304 243.091 107.09C243.852 107.875 244.233 108.967 244.233 110.365C244.233 111.752 243.856 112.838 243.102 113.623C242.349 114.404 241.341 114.795 240.079 114.795C238.802 114.795 237.786 114.406 237.032 113.629C236.278 112.847 235.901 111.773 235.901 110.406ZM237.688 110.347C237.688 111.32 237.913 112.058 238.362 112.562C238.811 113.062 239.382 113.312 240.073 113.312C240.765 113.312 241.331 113.064 241.772 112.568C242.218 112.068 242.44 111.32 242.44 110.324C242.44 109.34 242.224 108.605 241.79 108.121C241.36 107.636 240.788 107.394 240.073 107.394C239.358 107.394 238.782 107.64 238.345 108.133C237.907 108.621 237.688 109.359 237.688 110.347ZM246.079 114.648V106.058H249.729C250.647 106.058 251.313 106.136 251.727 106.293C252.145 106.445 252.479 106.719 252.729 107.113C252.979 107.508 253.104 107.959 253.104 108.467C253.104 109.111 252.914 109.644 252.536 110.066C252.157 110.484 251.59 110.748 250.836 110.857C251.211 111.076 251.52 111.316 251.762 111.578C252.008 111.84 252.338 112.304 252.752 112.972L253.801 114.648H251.727L250.473 112.779C250.028 112.111 249.723 111.691 249.559 111.519C249.395 111.344 249.221 111.224 249.038 111.162C248.854 111.095 248.563 111.062 248.164 111.062H247.813V114.648H246.079ZM247.813 109.691H249.096C249.928 109.691 250.448 109.656 250.655 109.586C250.862 109.515 251.024 109.394 251.141 109.222C251.258 109.051 251.317 108.836 251.317 108.578C251.317 108.289 251.239 108.056 251.082 107.881C250.93 107.701 250.713 107.588 250.432 107.541C250.291 107.521 249.87 107.511 249.166 107.511H247.813V109.691ZM255.271 114.648V106.129H257.006V113.201H261.318V114.648H255.271ZM263.035 106.058H266.205C266.919 106.058 267.464 106.113 267.839 106.222C268.343 106.371 268.775 106.635 269.134 107.013C269.494 107.392 269.767 107.857 269.955 108.408C270.142 108.955 270.236 109.631 270.236 110.435C270.236 111.142 270.148 111.752 269.972 112.263C269.757 112.888 269.451 113.394 269.052 113.781C268.751 114.074 268.345 114.302 267.833 114.467C267.451 114.588 266.939 114.648 266.298 114.648H263.035V106.058ZM264.769 107.511V113.201H266.064C266.548 113.201 266.898 113.174 267.113 113.119C267.394 113.049 267.626 112.929 267.81 112.761C267.997 112.594 268.15 112.318 268.267 111.935C268.384 111.549 268.443 111.023 268.443 110.359C268.443 109.695 268.384 109.185 268.267 108.83C268.15 108.474 267.986 108.197 267.775 107.998C267.564 107.799 267.296 107.664 266.972 107.594C266.73 107.539 266.255 107.511 265.548 107.511H264.769Z" fill="#1F1F1F"></path><path d="M329.719 110.09V105.079H331.848C332.384 105.079 332.772 105.125 333.014 105.216C333.257 105.305 333.452 105.464 333.598 105.694C333.744 105.924 333.817 106.188 333.817 106.484C333.817 106.86 333.706 107.171 333.485 107.417C333.264 107.661 332.934 107.815 332.494 107.878C332.713 108.006 332.893 108.146 333.034 108.299C333.178 108.451 333.37 108.723 333.612 109.112L334.224 110.09H333.014L332.282 109C332.022 108.61 331.845 108.365 331.749 108.265C331.653 108.162 331.552 108.093 331.445 108.056C331.338 108.017 331.168 107.998 330.936 107.998H330.73V110.09H329.719ZM330.73 107.198H331.479C331.964 107.198 332.267 107.178 332.388 107.137C332.509 107.096 332.604 107.025 332.672 106.925C332.74 106.825 332.774 106.699 332.774 106.549C332.774 106.38 332.729 106.245 332.638 106.142C332.549 106.037 332.422 105.971 332.258 105.944C332.176 105.932 331.93 105.927 331.52 105.927H330.73V107.198Z" fill="#1F1F1F"></path><path d="M160.059 23.8535L161.746 23.6895C161.848 24.2559 162.053 24.6719 162.361 24.9375C162.674 25.2031 163.094 25.3359 163.621 25.3359C164.18 25.3359 164.6 25.2188 164.881 24.9844C165.166 24.7461 165.309 24.4688 165.309 24.1523C165.309 23.9492 165.248 23.7773 165.127 23.6367C165.01 23.4922 164.803 23.3672 164.506 23.2617C164.303 23.1914 163.84 23.0664 163.117 22.8867C162.188 22.6562 161.535 22.373 161.16 22.0371C160.633 21.5645 160.369 20.9883 160.369 20.3086C160.369 19.8711 160.492 19.4629 160.738 19.084C160.988 18.7012 161.346 18.4102 161.811 18.2109C162.279 18.0117 162.844 17.9121 163.504 17.9121C164.582 17.9121 165.393 18.1484 165.936 18.6211C166.482 19.0938 166.77 19.7246 166.797 20.5137L165.062 20.5898C164.988 20.1484 164.828 19.832 164.582 19.6406C164.34 19.4453 163.975 19.3477 163.486 19.3477C162.982 19.3477 162.588 19.4512 162.303 19.6582C162.119 19.791 162.027 19.9688 162.027 20.1914C162.027 20.3945 162.113 20.5684 162.285 20.7129C162.504 20.8965 163.035 21.0879 163.879 21.2871C164.723 21.4863 165.346 21.6934 165.748 21.9082C166.154 22.1191 166.471 22.4102 166.697 22.7812C166.928 23.1484 167.043 23.6035 167.043 24.1465C167.043 24.6387 166.906 25.0996 166.633 25.5293C166.359 25.959 165.973 26.2793 165.473 26.4902C164.973 26.6973 164.35 26.8008 163.604 26.8008C162.518 26.8008 161.684 26.5508 161.102 26.0508C160.52 25.5469 160.172 24.8145 160.059 23.8535ZM168.449 26.6484V18.0586H170.184V26.6484H168.449ZM171.859 26.6484V18.0586H173.547L177.062 23.7949V18.0586H178.674V26.6484H176.934L173.471 21.0469V26.6484H171.859ZM186.01 23.4902L187.691 24.0234C187.434 24.9609 187.004 25.6582 186.402 26.1152C185.805 26.5684 185.045 26.7949 184.123 26.7949C182.982 26.7949 182.045 26.4062 181.311 25.6289C180.576 24.8477 180.209 23.7812 180.209 22.4297C180.209 21 180.578 19.8906 181.316 19.1016C182.055 18.3086 183.025 17.9121 184.229 17.9121C185.279 17.9121 186.133 18.2227 186.789 18.8438C187.18 19.2109 187.473 19.7383 187.668 20.4258L185.951 20.8359C185.85 20.3906 185.637 20.0391 185.312 19.7812C184.992 19.5234 184.602 19.3945 184.141 19.3945C183.504 19.3945 182.986 19.623 182.588 20.0801C182.193 20.5371 181.996 21.2773 181.996 22.3008C181.996 23.3867 182.191 24.1602 182.582 24.6211C182.973 25.082 183.48 25.3125 184.105 25.3125C184.566 25.3125 184.963 25.166 185.295 24.873C185.627 24.5801 185.865 24.1191 186.01 23.4902ZM189.186 26.6484V18.0586H195.555V19.5117H190.92V21.416H195.232V22.8633H190.92V25.2012H195.719V26.6484H189.186ZM204.379 26.6484H202.732V20.4434C202.131 21.0059 201.422 21.4219 200.605 21.6914V20.1973C201.035 20.0566 201.502 19.791 202.006 19.4004C202.51 19.0059 202.855 18.5469 203.043 18.0234H204.379V26.6484ZM206.881 24.6621L208.475 24.4863C208.514 24.8105 208.615 25.0508 208.779 25.207C208.943 25.3633 209.16 25.4414 209.43 25.4414C209.77 25.4414 210.059 25.2852 210.297 24.9727C210.535 24.6602 210.688 24.0117 210.754 23.0273C210.34 23.5078 209.822 23.748 209.201 23.748C208.525 23.748 207.941 23.4883 207.449 22.9688C206.961 22.4453 206.717 21.7656 206.717 20.9297C206.717 20.0586 206.975 19.3574 207.49 18.8262C208.01 18.291 208.67 18.0234 209.471 18.0234C210.342 18.0234 211.057 18.3613 211.615 19.0371C212.174 19.709 212.453 20.8164 212.453 22.3594C212.453 23.9297 212.162 25.0625 211.58 25.7578C210.998 26.4531 210.24 26.8008 209.307 26.8008C208.635 26.8008 208.092 26.623 207.678 26.2676C207.264 25.9082 206.998 25.373 206.881 24.6621ZM210.607 21.0645C210.607 20.5332 210.484 20.1211 210.238 19.8281C209.996 19.5352 209.715 19.3887 209.395 19.3887C209.09 19.3887 208.836 19.5098 208.633 19.752C208.434 19.9902 208.334 20.3828 208.334 20.9297C208.334 21.4844 208.443 21.8926 208.662 22.1543C208.881 22.4121 209.154 22.541 209.482 22.541C209.799 22.541 210.064 22.416 210.279 22.166C210.498 21.916 210.607 21.5488 210.607 21.0645ZM213.467 24.3691L215.061 24.1758C215.111 24.582 215.248 24.8926 215.471 25.1074C215.693 25.3223 215.963 25.4297 216.279 25.4297C216.619 25.4297 216.904 25.3008 217.135 25.043C217.369 24.7852 217.486 24.4375 217.486 24C217.486 23.5859 217.375 23.2578 217.152 23.0156C216.93 22.7734 216.658 22.6523 216.338 22.6523C216.127 22.6523 215.875 22.6934 215.582 22.7754L215.764 21.4336C216.209 21.4453 216.549 21.3496 216.783 21.1465C217.018 20.9395 217.135 20.666 217.135 20.3262C217.135 20.0371 217.049 19.8066 216.877 19.6348C216.705 19.4629 216.477 19.377 216.191 19.377C215.91 19.377 215.67 19.4746 215.471 19.6699C215.271 19.8652 215.15 20.1504 215.107 20.5254L213.59 20.2676C213.695 19.748 213.854 19.334 214.064 19.0254C214.279 18.7129 214.576 18.4688 214.955 18.293C215.338 18.1133 215.766 18.0234 216.238 18.0234C217.047 18.0234 217.695 18.2812 218.184 18.7969C218.586 19.2188 218.787 19.6953 218.787 20.2266C218.787 20.9805 218.375 21.582 217.551 22.0312C218.043 22.1367 218.436 22.373 218.729 22.7402C219.025 23.1074 219.174 23.5508 219.174 24.0703C219.174 24.8242 218.898 25.4668 218.348 25.998C217.797 26.5293 217.111 26.7949 216.291 26.7949C215.514 26.7949 214.869 26.5723 214.357 26.127C213.846 25.6777 213.549 25.0918 213.467 24.3691ZM220.205 19.7051V18.1758H225.836V19.3711C225.371 19.8281 224.898 20.4844 224.418 21.3398C223.938 22.1953 223.57 23.1055 223.316 24.0703C223.066 25.0312 222.943 25.8906 222.947 26.6484H221.359C221.387 25.4609 221.631 24.25 222.092 23.0156C222.557 21.7812 223.176 20.6777 223.949 19.7051H220.205Z" fill="#1F1F1F"></path><circle cx="331.378" cy="108.032" r="5.96918" stroke="black" stroke-width="0.2"></circle></svg> 